HIERARCHY
ROOT pelvis
{
  OFFSET 0 0 0
  CHANNELS 6 Xposition Yposition Zposition Zrotation Xrotation Yrotation
  JOINT pelvis_right_femur
  {
    OFFSET -11.43119 -3.542788 0.2090856
    CHANNELS 3 Zrotation Xrotation Yrotation
    JOINT right_femur_tibia
    {
      OFFSET -1.028693 -40.73281 5
      CHANNELS 3 Zrotation Xrotation Yrotation
      JOINT right_tibia_foot
      {
        OFFSET -0.5013517 -42.05707 -5
        CHANNELS 3 Zrotation Xrotation Yrotation
        End Site
        {
          OFFSET 0 -5 10
        }
      }
    }
  }
  JOINT pelvis_left_femur
  {
    OFFSET 11.43119 -3.542788 0.2090856
    CHANNELS 3 Zrotation Xrotation Yrotation
    JOINT left_femur_tibia
    {
      OFFSET 1.028693 -40.73281 5
      CHANNELS 3 Zrotation Xrotation Yrotation
      JOINT left_tibia_foot
      {
        OFFSET 0.3200228 -42.98253 -5
        CHANNELS 3 Zrotation Xrotation Yrotation
        End Site
        {
          OFFSET 0 -5 10
        }
      }
    }
  }
  JOINT pelvis_spine1
  {
    OFFSET 0 8.64413 -3.209807
    CHANNELS 3 Zrotation Xrotation Yrotation
    JOINT spine1
    {
      OFFSET 0 29.53957 -1.762685
      CHANNELS 3 Zrotation Xrotation Yrotation
      JOINT spine2
      {
        OFFSET 0 16.36153 -0.1422377
        CHANNELS 3 Zrotation Xrotation Yrotation
        JOINT neck
        {
          OFFSET 0 11.60093 5
          CHANNELS 3 Zrotation Xrotation Yrotation
          End Site
          {
            OFFSET 0 20 0
          }
        }
      }
      JOINT right_manubrium
      {
        OFFSET -4.671311 15.89868 4
        CHANNELS 3 Zrotation Xrotation Yrotation
        JOINT right_clavicle
        {
          OFFSET -13.601 1.573642 -2.74176
          CHANNELS 3 Zrotation Xrotation Yrotation
          JOINT right_humerus
          {
            OFFSET -0.06331682 -27.72702 2.252146
            CHANNELS 3 Zrotation Xrotation Yrotation
            JOINT right_radius
            {
              OFFSET -0.5696302 -23.92083 0.4042105
              CHANNELS 3 Zrotation Xrotation Yrotation
              End Site
              {
                OFFSET 0 -15 0
              }
            }
          }
        }
      }
      JOINT left_manubrium
      {
        OFFSET 4.671311 15.89868 4
        CHANNELS 3 Zrotation Xrotation Yrotation
        JOINT left_clavicle
        {
          OFFSET 13.601 1.573642 -2.74176
          CHANNELS 3 Zrotation Xrotation Yrotation
          JOINT left_humerus
          {
            OFFSET 0.000209614 -29.01858 1.101395
            CHANNELS 3 Zrotation Xrotation Yrotation
            JOINT left_radius
            {
              OFFSET -0.2288314 -24.59216 1.790347
              CHANNELS 3 Zrotation Xrotation Yrotation
              End Site
              {
                OFFSET 0 -15 0
              }
            }
          }
        }
      }
    }
  }
}
MOTION
Frames: 21
Frame Time: 0.0416666666667
0 48.26591 0 -4.569642 -17.62113 -1.470566 -55.56816 -62.32168 -55.91851 -180 85.61495 -180 5.790585 5.896795 -1.168572 73.05879 -51.91362 67.97997 -180 79.55769 -180 -4.941547 3.183466 -19.54441 -1.646187 20.10665 1.035079 8.32113 14.02326 -11.29545 -9.886794 10.43549 8.429413 4.142808 -29.19569 3.563686 21.55039 -5.913811 22.58553 -57.4283 -35.05562 12.96651 0 -72.18542 0 17.93088 10.26176 39.96727 -26.31804 -26.43262 -3.661381 56.42989 -22.11344 -22.19929 0 -79.47472 0 -10.74669 5.086736 -23.22646
-0.1048796 48.28941 -0.04260185 -4.242891 -17.67077 -1.795241 -55.55857 -62.59116 -55.8008 -180 85.64972 -180 5.736175 5.940288 -1.109592 72.67948 -51.61049 67.72089 -180 79.62701 -180 -4.979513 3.145 -19.45069 -1.998097 20.22088 1.098596 7.923877 14.05979 -11.12169 -9.732165 10.23702 8.885801 3.855375 -29.41472 4.485755 21.78466 -5.846605 22.68478 -57.18438 -35.24442 13.19939 0 -72.1164 0 17.97439 10.42033 40.00078 -26.78629 -27.26498 -2.811174 56.60805 -19.92817 -18.57472 0 -80.49603 0 -8.713697 2.518316 -21.10491
-0.1189714 48.2752 -0.05673226 -4.135919 -17.60888 -2.040315 -55.78932 -62.79463 -56.0278 -180 85.62871 -180 5.704554 6.005893 -1.022633 72.61926 -51.52684 67.68743 -180 79.61868 -180 -5.039005 3.111334 -19.31708 -1.904534 20.2506 1.009259 7.395552 14.01845 -10.80562 -9.429058 10.16182 9.621624 3.676003 -29.47947 5.875198 21.94877 -5.823393 22.50437 -56.94406 -35.40105 13.44301 0 -72.20301 0 18.01824 10.57613 40.02347 -27.3469 -28.6496 -1.479087 56.78501 -17.30164 -13.91471 0 -81.31697 0 -6.198095 -0.09497632 -18.6019
-0.1380869 48.15189 -0.05103992 -4.2215 -17.48809 -2.158993 -56.14829 -62.93048 -56.52505 -180 85.57096 -180 5.693279 6.027746 -0.898653 72.99874 -51.64432 67.89532 -180 79.51052 -180 -5.092822 3.058636 -19.18893 -1.449549 20.26267 0.9146701 6.874939 13.84266 -10.36198 -9.17913 10.17513 10.87726 3.589831 -29.36967 7.915086 21.94495 -5.903312 22.07054 -56.82211 -35.49267 13.59448 0 -72.51526 0 18.06943 10.70493 40.05762 -27.71957 -30.47927 -0.04592959 57.06119 -14.5389 -8.674866 0 -80.97149 0 -3.429588 -2.42673 -15.66635
-0.1730094 48.09788 -0.0841205 -4.191506 -17.34071 -2.178341 -56.65732 -62.97366 -57.1809 -180 85.53192 -180 5.69341 6.017567 -0.7830066 73.18651 -51.89586 67.98286 -180 79.48762 -180 -5.132242 3.043469 -19.06226 -1.061032 20.35754 1.068346 6.527735 13.59602 -9.847562 -9.178378 10.21413 12.8124 3.573075 -29.14407 10.67726 21.88014 -6.024465 21.4107 -56.8654 -35.43377 13.5714 0 -73.0572 0 18.10745 10.79445 40.0962 -27.76974 -32.61069 1.019539 57.49401 -11.97049 -3.358403 0 -78.8457 0 -0.6834374 -4.255969 -12.34278
-0.2190165 48.1377 0.01566301 -4.093123 -17.20283 -2.055839 -57.20268 -62.8183 -57.77406 -180 85.42 -180 5.695052 5.94895 -0.685475 73.10358 -52.11878 67.89066 -180 79.48393 -180 -5.152218 3.019477 -18.99354 -0.7276044 20.2357 1.375891 6.429361 13.56088 -9.333287 -9.458893 10.27936 15.27449 3.584038 -28.88425 13.94612 21.82925 -6.125691 20.62677 -57.06426 -35.15443 13.36925 0 -73.75989 0 18.14394 10.83418 40.14514 -27.55674 -34.83026 1.4978 58.13001 -9.776733 1.5816 0 -74.91126 0 1.782864 -5.519935 -8.751096
-0.250389 48.13598 0.06271765 -3.99254 -17.08893 -1.835975 -57.79803 -62.64754 -58.39567 -180 85.29973 -180 5.718488 5.872838 -0.6375842 73.05101 -52.43172 67.87063 -180 79.4767 -180 -5.165022 3.018697 -18.92716 -0.4482958 20.21034 1.767894 6.534068 13.51731 -8.886744 -9.890224 10.34849 17.8886 3.58841 -28.52007 17.28789 21.69311 -6.290361 19.8851 -57.4499 -34.79273 12.99259 0 -74.58474 0 18.18059 10.82557 40.20081 -26.92797 -36.86905 1.520566 59.0027 -8.066751 5.717934 0 -69.50544 0 3.616033 -6.245729 -5.082179
-0.2630533 48.14923 0.09393936 -3.96623 -17.04553 -1.505261 -58.09504 -62.38612 -58.66707 -180 85.23399 -180 5.75349 5.785529 -0.6505741 73.01781 -52.74764 67.84331 -180 79.48629 -180 -5.157061 3.023772 -18.91113 -0.1843746 20.20183 2.099405 6.810604 13.57717 -8.580694 -10.30413 10.4329 20.23886 3.591943 -28.11731 20.24588 21.52828 -6.471356 19.30351 -57.94893 -34.331 12.5084 0 -75.41345 0 18.22522 10.77627 40.25691 -25.96762 -38.55467 1.237423 60.12745 -6.883045 8.787535 0 -63.35732 0 4.56842 -6.631361 -1.614143
-0.1839426 48.23477 0.1514739 -4.030319 -17.04811 -1.065084 -58.12403 -62.04846 -58.57174 -180 85.22944 -180 5.798456 5.71866 -0.7418587 72.84863 -53.06329 67.77263 -180 79.52252 -180 -5.131955 3.043333 -18.92713 0.1722544 20.09634 2.244987 7.25897 13.79412 -8.458702 -10.61912 10.54724 22.09002 3.600401 -27.69552 22.55345 21.37691 -6.628983 18.96807 -58.50953 -33.81488 11.96149 0 -76.1325 0 18.2844 10.69941 40.30815 -24.78143 -39.69462 0.7759949 61.33554 -6.253811 10.60033 0 -57.32178 0 4.501317 -6.955196 1.392213
-0.2147777 48.14869 0.1106392 -3.85405 -17.03051 -0.8080246 -58.38201 -62.14806 -58.5326 -180 85.12974 -180 5.863496 5.672843 -0.91222 72.84878 -53.23385 67.948 -180 79.52949 -180 -5.115458 3.10702 -18.95982 -0.07006396 20.05433 2.572292 7.722986 13.90029 -8.349238 -10.72587 10.61528 23.35815 3.654452 -27.26034 24.15095 21.24609 -6.817228 18.84265 -59.107 -33.30372 11.36601 0 -76.80215 0 18.34717 10.56904 40.35481 -23.29636 -40.47352 0.3312753 62.59253 -5.982692 11.59294 0 -51.42431 0 3.673288 -7.26077 4.033403
-0.1460075 48.13664 0.1136988 -3.808834 -17.03559 -0.537708 -58.39006 -62.17685 -58.23158 -180 85.06899 -180 5.940342 5.629509 -1.133349 72.78236 -53.39167 68.0498 -180 79.52001 -180 -5.08252 3.169115 -18.99545 -0.1484732 19.99408 2.767552 8.163787 14.0611 -8.312049 -10.63548 10.58899 24.11364 3.771989 -26.96815 25.13497 21.16073 -7.031702 18.80981 -59.86907 -32.66971 10.61229 0 -77.32791 0 18.4288 10.38971 40.39831 -22.11307 -41.05655 -0.1739739 63.59983 -5.967269 12.00872 0 -46.0595 0 2.306398 -7.657976 6.336616
-0.05424896 48.12906 0.1184916 -3.865677 -17.05107 -0.2325252 -58.26741 -62.11283 -57.8687 -180 85.06977 -180 6.03125 5.580338 -1.396135 72.77185 -53.62143 68.13243 -180 79.50583 -180 -5.024027 3.243189 -19.06618 -0.1311575 19.91991 2.942092 8.567863 14.21508 -8.344212 -10.40596 10.49147 24.48266 3.966676 -26.81624 25.63797 21.11514 -7.3187 18.76437 -60.73436 -31.92359 9.692219 0 -77.65567 0 18.47975 10.19162 40.43853 -21.25009 -41.51813 -0.7334221 64.32685 -6.213924 11.99521 0 -41.53277 0 0.5870181 -8.284455 8.305954
0.03963114 48.12456 0.1063975 -3.955898 -17.07977 0.09103546 -58.12541 -61.99903 -57.57339 -180 85.0775 -180 6.130986 5.53237 -1.634077 72.76457 -53.89636 68.1962 -180 79.51102 -180 -4.960582 3.312493 -19.12791 -0.06845985 19.84089 3.072868 8.857829 14.36056 -8.450679 -10.14995 10.40924 24.64487 4.242629 -26.73916 25.83714 21.17275 -7.703093 18.59847 -61.55249 -31.11037 8.675114 0 -77.68709 0 18.47847 10.03825 40.47132 -20.70361 -41.97011 -1.291501 64.83132 -6.71188 11.73419 0 -38.09101 0 -1.218046 -9.18432 9.904645
0.1112281 48.14644 0.1096311 -4.149931 -17.12787 0.4045226 -57.72522 -61.81839 -57.12942 -180 85.13451 -180 6.231564 5.467631 -1.87224 72.87417 -54.12333 68.25578 -180 79.51128 -180 -4.875518 3.355946 -19.24445 0.1252079 19.75653 3.071976 9.002199 14.4686 -8.602852 -9.950168 10.32718 24.70665 4.56013 -26.75391 25.83508 21.321 -8.106865 18.31111 -62.19522 -30.32111 7.715321 0 -77.43549 0 18.4283 9.928485 40.49905 -20.43105 -42.53324 -1.812129 65.24484 -7.354865 11.46469 0 -35.52092 0 -2.907048 -10.24692 11.21538
0.243371 48.25227 0.1424324 -4.460447 -17.17615 0.6916102 -57.16313 -61.54051 -56.58395 -180 85.22068 -180 6.317809 5.415071 -2.074811 72.90786 -54.3067 68.22123 -180 79.52088 -180 -4.799639 3.39169 -19.36955 0.4319718 19.65147 2.840208 9.013313 14.58746 -8.786527 -9.731767 10.25036 24.62375 4.943899 -26.86501 25.61846 21.48116 -8.436047 18.01768 -62.61279 -29.66923 7.038242 0 -77.03825 0 18.39436 9.830253 40.53712 -20.27397 -43.14249 -2.2948 65.64478 -8.011196 11.21728 0 -33.44301 0 -4.453896 -11.33002 12.32103
0.171678 48.19207 0.1021986 -4.458763 -17.18726 0.7620897 -56.93659 -61.70825 -56.30006 -180 85.20259 -180 6.398887 5.344845 -2.24356 73.10961 -54.27305 68.40668 -180 79.55296 -180 -4.744261 3.421836 -19.48194 0.1019623 19.60117 2.756443 8.875454 14.56138 -8.871799 -9.472959 10.21803 24.23094 5.355078 -26.94145 24.9901 21.57357 -8.610069 17.91932 -62.72687 -29.33803 6.826503 0 -76.64404 0 18.4211 9.719542 40.59406 -19.84958 -43.79076 -2.762375 66.168 -8.713745 11.02583 0 -31.54552 0 -5.818072 -12.28712 13.27518
0.1665408 48.2219 0.08839114 -4.573329 -17.20243 0.8180338 -56.5485 -61.73464 -55.95711 -180 85.25609 -180 6.464956 5.296441 -2.384664 73.24127 -54.22136 68.50466 -180 79.59992 -180 -4.695005 3.445076 -19.58577 -0.1066261 19.54566 2.486074 8.728295 14.5505 -9.075367 -9.076355 10.19982 23.28151 5.763539 -27.14329 23.70928 21.63886 -8.594747 18.07492 -62.61576 -29.25138 7.015885 0 -76.22578 0 18.49428 9.60266 40.67416 -19.45585 -44.51067 -3.23183 66.71284 -9.331586 10.94667 0 -29.61773 0 -6.986774 -13.05185 14.13103
0.2349525 48.32212 0.1062002 -4.850834 -17.19333 0.8475105 -56.05808 -61.60129 -55.62009 -180 85.37843 -180 6.512919 5.289962 -2.465329 73.38345 -54.18697 68.55381 -180 79.61928 -180 -4.651442 3.450751 -19.65895 -0.1774934 19.49134 2.071126 8.669609 14.51036 -9.41401 -8.433817 10.16097 21.67451 6.159327 -27.52349 21.73534 21.74719 -8.471401 18.50141 -62.36979 -29.32827 7.419079 0 -75.68334 0 18.59867 9.497778 40.75689 -19.15977 -45.29605 -3.688938 67.28995 -9.811209 10.97556 0 -27.63147 0 -7.941422 -13.61661 14.92527
0.1372268 48.25367 0.05983868 -4.838078 -17.14594 0.659545 -55.99086 -61.8629 -55.66959 -180 85.39517 -180 6.558393 5.288188 -2.482053 73.70958 -54.02954 68.79518 -180 79.61694 -180 -4.642432 3.441219 -19.66221 -0.8263014 19.54721 1.908348 8.678543 14.29205 -9.723919 -7.558648 10.09266 19.63752 6.535914 -27.97563 19.35681 21.87974 -8.367488 19.05857 -62.04068 -29.55801 7.861889 0 -75.05752 0 18.67736 9.4127 40.82916 -18.65267 -46.09589 -4.033682 67.99236 -10.15938 11.10646 0 -25.58916 0 -8.719219 -13.99499 15.69511
0.1371504 48.25228 0.04789856 -4.911822 -17.06779 0.4619018 -55.98478 -61.98353 -55.81023 -180 85.44147 -180 6.576971 5.333238 -2.438084 73.89253 -53.96693 68.87954 -180 79.58385 -180 -4.663286 3.3987 -19.5903 -1.299522 19.57263 1.646431 8.802699 14.13865 -10.09663 -6.579691 9.983172 17.56339 6.91833 -28.54551 17.03203 22.03325 -8.299455 19.55859 -61.71898 -29.8341 8.294964 0 -74.44497 0 18.75469 9.31831 40.90292 -18.24836 -46.77626 -4.289694 68.67672 -10.29261 11.21977 0 -23.66604 0 -9.372324 -14.25931 16.42299
0.1555242 48.2662 0.05632516 -5.055599 -16.99179 0.204607 -55.80806 -62.07767 -55.85034 -180 85.54391 -180 6.581761 5.374374 -2.347486 74.12705 -53.93844 68.89046 -180 79.51483 -180 -4.693544 3.312185 -19.4683 -1.649586 19.60155 1.390197 8.998009 14.06127 -10.4361 -5.620425 9.807112 15.74766 7.328469 -29.18032 15.05417 22.17707 -8.267541 19.95374 -61.39516 -30.157 8.715615 0 -73.94337 0 18.82061 9.200105 40.98366 -17.93912 -47.24158 -4.530558 69.30104 -10.24916 11.23828 0 -21.93305 0 -9.943544 -14.43698 17.12538
